<mxfile host="Electron" agent="Mozilla/5.0 (X11; Linux x86_64) AppleWebKit/537.36 (KHTML, like Gecko) draw.io/24.7.17 Chrome/128.0.6613.36 Electron/32.0.1 Safari/537.36" version="24.7.17">
  <diagram name="Page-1" id="vKIahe1MYDicm_u_yyeZ">
    <mxGraphModel dx="2603" dy="843" grid="1" gridSize="10" guides="1" tooltips="1" connect="1" arrows="1" fold="1" page="1" pageScale="1" pageWidth="1169" pageHeight="827" math="1" shadow="0">
      <root>
        <mxCell id="0" />
        <mxCell id="1" parent="0" />
        <mxCell id="ib_VcqRpzg_vTdFNA_JS-113" value="" style="rounded=0;whiteSpace=wrap;html=1;fillColor=none;dashed=1;dashPattern=12 12;" vertex="1" parent="1">
          <mxGeometry x="-345" y="200" width="524" height="260" as="geometry" />
        </mxCell>
        <mxCell id="ib_VcqRpzg_vTdFNA_JS-37" value="" style="ellipse;whiteSpace=wrap;html=1;aspect=fixed;" vertex="1" parent="1">
          <mxGeometry x="-371" y="485" width="10" height="10" as="geometry" />
        </mxCell>
        <mxCell id="ib_VcqRpzg_vTdFNA_JS-38" value="" style="ellipse;whiteSpace=wrap;html=1;aspect=fixed;" vertex="1" parent="1">
          <mxGeometry x="-471" y="485" width="10" height="10" as="geometry" />
        </mxCell>
        <mxCell id="ib_VcqRpzg_vTdFNA_JS-39" value="" style="ellipse;whiteSpace=wrap;html=1;aspect=fixed;" vertex="1" parent="1">
          <mxGeometry x="-421" y="565" width="10" height="10" as="geometry" />
        </mxCell>
        <mxCell id="ib_VcqRpzg_vTdFNA_JS-40" value="" style="ellipse;whiteSpace=wrap;html=1;aspect=fixed;" vertex="1" parent="1">
          <mxGeometry x="-601" y="485" width="10" height="10" as="geometry" />
        </mxCell>
        <mxCell id="ib_VcqRpzg_vTdFNA_JS-41" value="" style="endArrow=none;html=1;rounded=0;" edge="1" parent="1">
          <mxGeometry width="50" height="50" relative="1" as="geometry">
            <mxPoint x="-596" y="569" as="sourcePoint" />
            <mxPoint x="-596" y="249" as="targetPoint" />
          </mxGeometry>
        </mxCell>
        <mxCell id="ib_VcqRpzg_vTdFNA_JS-42" value="" style="ellipse;whiteSpace=wrap;html=1;aspect=fixed;fillColor=#000000;" vertex="1" parent="1">
          <mxGeometry x="-601" y="564" width="10" height="10" as="geometry" />
        </mxCell>
        <mxCell id="ib_VcqRpzg_vTdFNA_JS-43" value="" style="ellipse;whiteSpace=wrap;html=1;aspect=fixed;" vertex="1" parent="1">
          <mxGeometry x="-741" y="485" width="10" height="10" as="geometry" />
        </mxCell>
        <mxCell id="ib_VcqRpzg_vTdFNA_JS-44" value="" style="ellipse;whiteSpace=wrap;html=1;aspect=fixed;" vertex="1" parent="1">
          <mxGeometry x="-791" y="565" width="10" height="10" as="geometry" />
        </mxCell>
        <mxCell id="ib_VcqRpzg_vTdFNA_JS-45" value="" style="ellipse;whiteSpace=wrap;html=1;aspect=fixed;" vertex="1" parent="1">
          <mxGeometry x="-891" y="565" width="10" height="10" as="geometry" />
        </mxCell>
        <mxCell id="ib_VcqRpzg_vTdFNA_JS-46" value="" style="ellipse;whiteSpace=wrap;html=1;aspect=fixed;" vertex="1" parent="1">
          <mxGeometry x="-841" y="485" width="10" height="10" as="geometry" />
        </mxCell>
        <mxCell id="ib_VcqRpzg_vTdFNA_JS-47" value="" style="ellipse;whiteSpace=wrap;html=1;aspect=fixed;" vertex="1" parent="1">
          <mxGeometry x="-941" y="565" width="10" height="10" as="geometry" />
        </mxCell>
        <mxCell id="ib_VcqRpzg_vTdFNA_JS-48" value="&lt;font style=&quot;font-size: 14px;&quot;&gt;$$\texttt{H}$$&lt;/font&gt;" style="whiteSpace=wrap;html=1;aspect=fixed;fillColor=#dae8fc;gradientColor=#7ea6e0;strokeColor=#6c8ebf;" vertex="1" parent="1">
          <mxGeometry x="-1021" y="390" width="40" height="40" as="geometry" />
        </mxCell>
        <mxCell id="ib_VcqRpzg_vTdFNA_JS-49" value="" style="endArrow=none;html=1;rounded=0;entryX=0;entryY=0.5;entryDx=0;entryDy=0;" edge="1" parent="1" target="ib_VcqRpzg_vTdFNA_JS-48">
          <mxGeometry width="50" height="50" relative="1" as="geometry">
            <mxPoint x="-1120" y="410" as="sourcePoint" />
            <mxPoint x="-1070" y="360" as="targetPoint" />
          </mxGeometry>
        </mxCell>
        <mxCell id="ib_VcqRpzg_vTdFNA_JS-50" value="" style="endArrow=none;html=1;rounded=0;entryX=0.5;entryY=1;entryDx=0;entryDy=0;exitX=0.5;exitY=1;exitDx=0;exitDy=0;" edge="1" parent="1" source="ib_VcqRpzg_vTdFNA_JS-47" target="ib_VcqRpzg_vTdFNA_JS-68">
          <mxGeometry width="50" height="50" relative="1" as="geometry">
            <mxPoint x="-936.15" y="485" as="sourcePoint" />
            <mxPoint x="-936.15" y="425.0000000000001" as="targetPoint" />
          </mxGeometry>
        </mxCell>
        <mxCell id="ib_VcqRpzg_vTdFNA_JS-51" value="" style="endArrow=none;html=1;rounded=0;exitX=1;exitY=0.5;exitDx=0;exitDy=0;entryX=0;entryY=0.5;entryDx=0;entryDy=0;" edge="1" parent="1" source="ib_VcqRpzg_vTdFNA_JS-48" target="ib_VcqRpzg_vTdFNA_JS-95">
          <mxGeometry width="50" height="50" relative="1" as="geometry">
            <mxPoint x="-951" y="430" as="sourcePoint" />
            <mxPoint x="-271" y="410" as="targetPoint" />
          </mxGeometry>
        </mxCell>
        <mxCell id="ib_VcqRpzg_vTdFNA_JS-52" value="&lt;font style=&quot;font-size: 14px;&quot;&gt;$$\ket{0}$$&lt;/font&gt;" style="text;html=1;align=center;verticalAlign=middle;whiteSpace=wrap;rounded=0;" vertex="1" parent="1">
          <mxGeometry x="-1150" y="395" width="30" height="30" as="geometry" />
        </mxCell>
        <mxCell id="ib_VcqRpzg_vTdFNA_JS-53" value="&lt;font style=&quot;font-size: 14px;&quot;&gt;$$\ket{0}$$&lt;/font&gt;" style="text;html=1;align=center;verticalAlign=middle;whiteSpace=wrap;rounded=0;" vertex="1" parent="1">
          <mxGeometry x="-1150" y="475" width="30" height="30" as="geometry" />
        </mxCell>
        <mxCell id="ib_VcqRpzg_vTdFNA_JS-54" value="&lt;font style=&quot;font-size: 14px;&quot;&gt;$$\ket{0}$$&lt;/font&gt;" style="text;html=1;align=center;verticalAlign=middle;whiteSpace=wrap;rounded=0;" vertex="1" parent="1">
          <mxGeometry x="-1150" y="555" width="30" height="30" as="geometry" />
        </mxCell>
        <mxCell id="ib_VcqRpzg_vTdFNA_JS-55" value="" style="endArrow=none;html=1;rounded=0;exitX=1;exitY=0.5;exitDx=0;exitDy=0;" edge="1" parent="1" source="ib_VcqRpzg_vTdFNA_JS-54" target="ib_VcqRpzg_vTdFNA_JS-73">
          <mxGeometry width="50" height="50" relative="1" as="geometry">
            <mxPoint x="-1041" y="570" as="sourcePoint" />
            <mxPoint x="-761" y="570" as="targetPoint" />
          </mxGeometry>
        </mxCell>
        <mxCell id="ib_VcqRpzg_vTdFNA_JS-56" value="" style="endArrow=none;html=1;rounded=0;exitX=1;exitY=0.5;exitDx=0;exitDy=0;entryX=0;entryY=0.5;entryDx=0;entryDy=0;" edge="1" parent="1" source="ib_VcqRpzg_vTdFNA_JS-73" target="ib_VcqRpzg_vTdFNA_JS-83">
          <mxGeometry width="50" height="50" relative="1" as="geometry">
            <mxPoint x="-591" y="569.8599999999999" as="sourcePoint" />
            <mxPoint x="-470" y="569.8599999999999" as="targetPoint" />
          </mxGeometry>
        </mxCell>
        <mxCell id="ib_VcqRpzg_vTdFNA_JS-57" value="" style="endArrow=none;html=1;rounded=0;exitX=1;exitY=0.5;exitDx=0;exitDy=0;entryX=0;entryY=0.5;entryDx=0;entryDy=0;" edge="1" parent="1" source="ib_VcqRpzg_vTdFNA_JS-96" target="ib_VcqRpzg_vTdFNA_JS-112">
          <mxGeometry width="50" height="50" relative="1" as="geometry">
            <mxPoint x="49" y="405.20000000000005" as="sourcePoint" />
            <mxPoint x="86.59999999999991" y="405" as="targetPoint" />
          </mxGeometry>
        </mxCell>
        <mxCell id="ib_VcqRpzg_vTdFNA_JS-58" value="&lt;font style=&quot;font-size: 14px;&quot;&gt;$$\texttt{H}$$&lt;/font&gt;" style="whiteSpace=wrap;html=1;aspect=fixed;fillColor=#dae8fc;gradientColor=#7ea6e0;strokeColor=#6c8ebf;" vertex="1" parent="1">
          <mxGeometry x="-1021" y="310" width="40" height="40" as="geometry" />
        </mxCell>
        <mxCell id="ib_VcqRpzg_vTdFNA_JS-59" value="" style="endArrow=none;html=1;rounded=0;entryX=0;entryY=0.5;entryDx=0;entryDy=0;" edge="1" parent="1" target="ib_VcqRpzg_vTdFNA_JS-58">
          <mxGeometry width="50" height="50" relative="1" as="geometry">
            <mxPoint x="-1120" y="330" as="sourcePoint" />
            <mxPoint x="-1070" y="280" as="targetPoint" />
          </mxGeometry>
        </mxCell>
        <mxCell id="ib_VcqRpzg_vTdFNA_JS-60" value="" style="endArrow=none;html=1;rounded=0;exitX=1;exitY=0.5;exitDx=0;exitDy=0;" edge="1" parent="1" source="ib_VcqRpzg_vTdFNA_JS-58" target="ib_VcqRpzg_vTdFNA_JS-104">
          <mxGeometry width="50" height="50" relative="1" as="geometry">
            <mxPoint x="-758" y="580" as="sourcePoint" />
            <mxPoint x="-71" y="330" as="targetPoint" />
          </mxGeometry>
        </mxCell>
        <mxCell id="ib_VcqRpzg_vTdFNA_JS-61" value="&lt;font style=&quot;font-size: 14px;&quot;&gt;$$\ket{0}$$&lt;/font&gt;" style="text;html=1;align=center;verticalAlign=middle;whiteSpace=wrap;rounded=0;" vertex="1" parent="1">
          <mxGeometry x="-1150" y="315" width="30" height="30" as="geometry" />
        </mxCell>
        <mxCell id="ib_VcqRpzg_vTdFNA_JS-62" value="" style="endArrow=none;html=1;rounded=0;exitX=1;exitY=0.5;exitDx=0;exitDy=0;entryX=0;entryY=0.5;entryDx=0;entryDy=0;" edge="1" parent="1" source="ib_VcqRpzg_vTdFNA_JS-105" target="ib_VcqRpzg_vTdFNA_JS-111">
          <mxGeometry width="50" height="50" relative="1" as="geometry">
            <mxPoint x="49" y="329" as="sourcePoint" />
            <mxPoint x="86.59999999999991" y="328.79999999999995" as="targetPoint" />
          </mxGeometry>
        </mxCell>
        <mxCell id="ib_VcqRpzg_vTdFNA_JS-63" value="&lt;font style=&quot;font-size: 14px;&quot;&gt;$$\texttt{H}$$&lt;/font&gt;" style="whiteSpace=wrap;html=1;aspect=fixed;fillColor=#dae8fc;gradientColor=#7ea6e0;strokeColor=#6c8ebf;" vertex="1" parent="1">
          <mxGeometry x="-1021" y="230" width="40" height="40" as="geometry" />
        </mxCell>
        <mxCell id="ib_VcqRpzg_vTdFNA_JS-64" value="" style="endArrow=none;html=1;rounded=0;entryX=0;entryY=0.5;entryDx=0;entryDy=0;" edge="1" parent="1" target="ib_VcqRpzg_vTdFNA_JS-63">
          <mxGeometry width="50" height="50" relative="1" as="geometry">
            <mxPoint x="-1120" y="250" as="sourcePoint" />
            <mxPoint x="-1070" y="200" as="targetPoint" />
          </mxGeometry>
        </mxCell>
        <mxCell id="ib_VcqRpzg_vTdFNA_JS-65" value="" style="endArrow=none;html=1;rounded=0;exitX=1;exitY=0.5;exitDx=0;exitDy=0;" edge="1" parent="1" source="ib_VcqRpzg_vTdFNA_JS-63" target="ib_VcqRpzg_vTdFNA_JS-109">
          <mxGeometry width="50" height="50" relative="1" as="geometry">
            <mxPoint x="-758" y="500" as="sourcePoint" />
            <mxPoint x="119" y="250" as="targetPoint" />
          </mxGeometry>
        </mxCell>
        <mxCell id="ib_VcqRpzg_vTdFNA_JS-66" value="&lt;font style=&quot;font-size: 14px;&quot;&gt;$$\ket{0}$$&lt;/font&gt;" style="text;html=1;align=center;verticalAlign=middle;whiteSpace=wrap;rounded=0;" vertex="1" parent="1">
          <mxGeometry x="-1150" y="235" width="30" height="30" as="geometry" />
        </mxCell>
        <mxCell id="ib_VcqRpzg_vTdFNA_JS-67" value="" style="endArrow=none;html=1;rounded=0;exitX=1;exitY=0.5;exitDx=0;exitDy=0;entryX=0;entryY=0.5;entryDx=0;entryDy=0;" edge="1" parent="1" source="ib_VcqRpzg_vTdFNA_JS-109" target="ib_VcqRpzg_vTdFNA_JS-110">
          <mxGeometry width="50" height="50" relative="1" as="geometry">
            <mxPoint x="229" y="248.7700000000001" as="sourcePoint" />
            <mxPoint x="239" y="250" as="targetPoint" />
          </mxGeometry>
        </mxCell>
        <mxCell id="ib_VcqRpzg_vTdFNA_JS-68" value="" style="ellipse;whiteSpace=wrap;html=1;aspect=fixed;fillColor=#000000;" vertex="1" parent="1">
          <mxGeometry x="-941" y="404" width="10" height="10" as="geometry" />
        </mxCell>
        <mxCell id="ib_VcqRpzg_vTdFNA_JS-69" value="" style="ellipse;whiteSpace=wrap;html=1;aspect=fixed;fillColor=#000000;" vertex="1" parent="1">
          <mxGeometry x="-891" y="325" width="10" height="10" as="geometry" />
        </mxCell>
        <mxCell id="ib_VcqRpzg_vTdFNA_JS-70" value="" style="endArrow=none;html=1;rounded=0;entryX=0.5;entryY=1;entryDx=0;entryDy=0;exitX=0.5;exitY=1;exitDx=0;exitDy=0;" edge="1" parent="1" target="ib_VcqRpzg_vTdFNA_JS-69">
          <mxGeometry width="50" height="50" relative="1" as="geometry">
            <mxPoint x="-886" y="495" as="sourcePoint" />
            <mxPoint x="-886" y="414" as="targetPoint" />
          </mxGeometry>
        </mxCell>
        <mxCell id="ib_VcqRpzg_vTdFNA_JS-71" value="" style="endArrow=none;html=1;rounded=0;entryX=0.5;entryY=0;entryDx=0;entryDy=0;" edge="1" parent="1" target="ib_VcqRpzg_vTdFNA_JS-46">
          <mxGeometry width="50" height="50" relative="1" as="geometry">
            <mxPoint x="-836" y="570" as="sourcePoint" />
            <mxPoint x="-811" y="430" as="targetPoint" />
          </mxGeometry>
        </mxCell>
        <mxCell id="ib_VcqRpzg_vTdFNA_JS-72" value="" style="ellipse;whiteSpace=wrap;html=1;aspect=fixed;fillColor=#000000;" vertex="1" parent="1">
          <mxGeometry x="-841" y="565" width="10" height="10" as="geometry" />
        </mxCell>
        <mxCell id="ib_VcqRpzg_vTdFNA_JS-73" value="&lt;font style=&quot;font-size: 14px;&quot;&gt;$$\texttt{X}$$&lt;/font&gt;" style="whiteSpace=wrap;html=1;aspect=fixed;fillColor=#e6d0de;gradientColor=#d5739d;strokeColor=#996185;" vertex="1" parent="1">
          <mxGeometry x="-691" y="550" width="40" height="40" as="geometry" />
        </mxCell>
        <mxCell id="ib_VcqRpzg_vTdFNA_JS-74" value="" style="endArrow=none;html=1;rounded=0;entryX=0.5;entryY=1;entryDx=0;entryDy=0;exitX=0.5;exitY=1;exitDx=0;exitDy=0;" edge="1" parent="1" source="ib_VcqRpzg_vTdFNA_JS-45">
          <mxGeometry width="50" height="50" relative="1" as="geometry">
            <mxPoint x="-886" y="575" as="sourcePoint" />
            <mxPoint x="-886" y="495" as="targetPoint" />
          </mxGeometry>
        </mxCell>
        <mxCell id="ib_VcqRpzg_vTdFNA_JS-75" value="" style="ellipse;whiteSpace=wrap;html=1;aspect=fixed;fillColor=#000000;" vertex="1" parent="1">
          <mxGeometry x="-791" y="325" width="10" height="10" as="geometry" />
        </mxCell>
        <mxCell id="ib_VcqRpzg_vTdFNA_JS-76" value="" style="endArrow=none;html=1;rounded=0;entryX=0.5;entryY=1;entryDx=0;entryDy=0;exitX=0.5;exitY=1;exitDx=0;exitDy=0;" edge="1" parent="1" source="ib_VcqRpzg_vTdFNA_JS-79" target="ib_VcqRpzg_vTdFNA_JS-75">
          <mxGeometry width="50" height="50" relative="1" as="geometry">
            <mxPoint x="-786" y="495" as="sourcePoint" />
            <mxPoint x="-786" y="414" as="targetPoint" />
          </mxGeometry>
        </mxCell>
        <mxCell id="ib_VcqRpzg_vTdFNA_JS-77" value="" style="endArrow=none;html=1;rounded=0;entryX=0.5;entryY=1;entryDx=0;entryDy=0;exitX=0.5;exitY=1;exitDx=0;exitDy=0;" edge="1" parent="1" source="ib_VcqRpzg_vTdFNA_JS-44">
          <mxGeometry width="50" height="50" relative="1" as="geometry">
            <mxPoint x="-786" y="575" as="sourcePoint" />
            <mxPoint x="-786" y="495" as="targetPoint" />
          </mxGeometry>
        </mxCell>
        <mxCell id="ib_VcqRpzg_vTdFNA_JS-78" value="" style="endArrow=none;html=1;rounded=0;entryX=0.5;entryY=1;entryDx=0;entryDy=0;exitX=0.5;exitY=1;exitDx=0;exitDy=0;" edge="1" parent="1" target="ib_VcqRpzg_vTdFNA_JS-79">
          <mxGeometry width="50" height="50" relative="1" as="geometry">
            <mxPoint x="-786" y="495" as="sourcePoint" />
            <mxPoint x="-786" y="335" as="targetPoint" />
          </mxGeometry>
        </mxCell>
        <mxCell id="ib_VcqRpzg_vTdFNA_JS-79" value="" style="ellipse;whiteSpace=wrap;html=1;aspect=fixed;fillColor=#000000;" vertex="1" parent="1">
          <mxGeometry x="-791" y="485" width="10" height="10" as="geometry" />
        </mxCell>
        <mxCell id="ib_VcqRpzg_vTdFNA_JS-80" value="" style="endArrow=none;html=1;rounded=0;entryX=0.5;entryY=0;entryDx=0;entryDy=0;" edge="1" parent="1" target="ib_VcqRpzg_vTdFNA_JS-43">
          <mxGeometry width="50" height="50" relative="1" as="geometry">
            <mxPoint x="-736" y="570" as="sourcePoint" />
            <mxPoint x="-711" y="430" as="targetPoint" />
          </mxGeometry>
        </mxCell>
        <mxCell id="ib_VcqRpzg_vTdFNA_JS-81" value="" style="ellipse;whiteSpace=wrap;html=1;aspect=fixed;fillColor=#000000;" vertex="1" parent="1">
          <mxGeometry x="-741" y="565" width="10" height="10" as="geometry" />
        </mxCell>
        <mxCell id="ib_VcqRpzg_vTdFNA_JS-82" value="" style="ellipse;whiteSpace=wrap;html=1;aspect=fixed;fillColor=#000000;" vertex="1" parent="1">
          <mxGeometry x="-601" y="244" width="10" height="10" as="geometry" />
        </mxCell>
        <mxCell id="ib_VcqRpzg_vTdFNA_JS-83" value="&lt;font style=&quot;font-size: 14px;&quot;&gt;$$\texttt{X}$$&lt;/font&gt;" style="whiteSpace=wrap;html=1;aspect=fixed;fillColor=#e6d0de;gradientColor=#d5739d;strokeColor=#996185;" vertex="1" parent="1">
          <mxGeometry x="-541" y="550" width="40" height="40" as="geometry" />
        </mxCell>
        <mxCell id="ib_VcqRpzg_vTdFNA_JS-84" value="" style="endArrow=none;html=1;rounded=0;exitX=1;exitY=0.5;exitDx=0;exitDy=0;" edge="1" parent="1" source="ib_VcqRpzg_vTdFNA_JS-53" target="ib_VcqRpzg_vTdFNA_JS-40">
          <mxGeometry width="50" height="50" relative="1" as="geometry">
            <mxPoint x="-1041" y="490" as="sourcePoint" />
            <mxPoint x="-481" y="490" as="targetPoint" />
            <Array as="points">
              <mxPoint x="319" y="490" />
            </Array>
          </mxGeometry>
        </mxCell>
        <mxCell id="ib_VcqRpzg_vTdFNA_JS-85" value="" style="endArrow=none;html=1;rounded=0;exitX=0.997;exitY=0.491;exitDx=0;exitDy=0;exitPerimeter=0;" edge="1" parent="1" source="ib_VcqRpzg_vTdFNA_JS-83">
          <mxGeometry width="50" height="50" relative="1" as="geometry">
            <mxPoint x="-391" y="530" as="sourcePoint" />
            <mxPoint x="321.4000000000001" y="570" as="targetPoint" />
          </mxGeometry>
        </mxCell>
        <mxCell id="ib_VcqRpzg_vTdFNA_JS-86" value="" style="endArrow=none;html=1;rounded=0;entryX=0.5;entryY=0;entryDx=0;entryDy=0;" edge="1" parent="1" target="ib_VcqRpzg_vTdFNA_JS-38">
          <mxGeometry width="50" height="50" relative="1" as="geometry">
            <mxPoint x="-466" y="570" as="sourcePoint" />
            <mxPoint x="-441" y="430" as="targetPoint" />
          </mxGeometry>
        </mxCell>
        <mxCell id="ib_VcqRpzg_vTdFNA_JS-87" value="" style="ellipse;whiteSpace=wrap;html=1;aspect=fixed;fillColor=#000000;" vertex="1" parent="1">
          <mxGeometry x="-471" y="565" width="10" height="10" as="geometry" />
        </mxCell>
        <mxCell id="ib_VcqRpzg_vTdFNA_JS-88" value="" style="ellipse;whiteSpace=wrap;html=1;aspect=fixed;fillColor=#000000;" vertex="1" parent="1">
          <mxGeometry x="-421" y="325" width="10" height="10" as="geometry" />
        </mxCell>
        <mxCell id="ib_VcqRpzg_vTdFNA_JS-89" value="" style="endArrow=none;html=1;rounded=0;entryX=0.5;entryY=1;entryDx=0;entryDy=0;exitX=0.5;exitY=1;exitDx=0;exitDy=0;" edge="1" parent="1" source="ib_VcqRpzg_vTdFNA_JS-92" target="ib_VcqRpzg_vTdFNA_JS-88">
          <mxGeometry width="50" height="50" relative="1" as="geometry">
            <mxPoint x="-416" y="495" as="sourcePoint" />
            <mxPoint x="-416" y="414" as="targetPoint" />
          </mxGeometry>
        </mxCell>
        <mxCell id="ib_VcqRpzg_vTdFNA_JS-90" value="" style="endArrow=none;html=1;rounded=0;entryX=0.5;entryY=1;entryDx=0;entryDy=0;exitX=0.5;exitY=1;exitDx=0;exitDy=0;" edge="1" parent="1" source="ib_VcqRpzg_vTdFNA_JS-39">
          <mxGeometry width="50" height="50" relative="1" as="geometry">
            <mxPoint x="-416" y="575" as="sourcePoint" />
            <mxPoint x="-416" y="495" as="targetPoint" />
          </mxGeometry>
        </mxCell>
        <mxCell id="ib_VcqRpzg_vTdFNA_JS-91" value="" style="endArrow=none;html=1;rounded=0;entryX=0.5;entryY=1;entryDx=0;entryDy=0;exitX=0.5;exitY=1;exitDx=0;exitDy=0;" edge="1" parent="1" target="ib_VcqRpzg_vTdFNA_JS-92">
          <mxGeometry width="50" height="50" relative="1" as="geometry">
            <mxPoint x="-416" y="495" as="sourcePoint" />
            <mxPoint x="-416" y="335" as="targetPoint" />
          </mxGeometry>
        </mxCell>
        <mxCell id="ib_VcqRpzg_vTdFNA_JS-92" value="" style="ellipse;whiteSpace=wrap;html=1;aspect=fixed;fillColor=#000000;" vertex="1" parent="1">
          <mxGeometry x="-421" y="485" width="10" height="10" as="geometry" />
        </mxCell>
        <mxCell id="ib_VcqRpzg_vTdFNA_JS-93" value="" style="endArrow=none;html=1;rounded=0;entryX=0.5;entryY=0;entryDx=0;entryDy=0;" edge="1" parent="1" target="ib_VcqRpzg_vTdFNA_JS-37">
          <mxGeometry width="50" height="50" relative="1" as="geometry">
            <mxPoint x="-366" y="570" as="sourcePoint" />
            <mxPoint x="-341" y="430" as="targetPoint" />
          </mxGeometry>
        </mxCell>
        <mxCell id="ib_VcqRpzg_vTdFNA_JS-94" value="" style="ellipse;whiteSpace=wrap;html=1;aspect=fixed;fillColor=#000000;" vertex="1" parent="1">
          <mxGeometry x="-371" y="565" width="10" height="10" as="geometry" />
        </mxCell>
        <mxCell id="ib_VcqRpzg_vTdFNA_JS-95" value="&lt;font style=&quot;font-size: 14px;&quot;&gt;$$\texttt{H}$$&lt;/font&gt;" style="whiteSpace=wrap;html=1;aspect=fixed;fillColor=#dae8fc;gradientColor=#7ea6e0;strokeColor=#6c8ebf;" vertex="1" parent="1">
          <mxGeometry x="-320" y="390" width="40" height="40" as="geometry" />
        </mxCell>
        <mxCell id="ib_VcqRpzg_vTdFNA_JS-96" value="&lt;font style=&quot;font-size: 14px;&quot;&gt;$$\texttt{T}^\dagger$$&lt;/font&gt;" style="whiteSpace=wrap;html=1;aspect=fixed;fillColor=#f5f5f5;gradientColor=#b3b3b3;strokeColor=#666666;" vertex="1" parent="1">
          <mxGeometry x="-161" y="389" width="40" height="40" as="geometry" />
        </mxCell>
        <mxCell id="ib_VcqRpzg_vTdFNA_JS-98" value="" style="endArrow=none;html=1;rounded=0;entryX=-0.005;entryY=0.518;entryDx=0;entryDy=0;exitX=1;exitY=0.5;exitDx=0;exitDy=0;entryPerimeter=0;" edge="1" parent="1" source="ib_VcqRpzg_vTdFNA_JS-95">
          <mxGeometry width="50" height="50" relative="1" as="geometry">
            <mxPoint x="-320" y="485" as="sourcePoint" />
            <mxPoint x="-240.20000000000027" y="409.72" as="targetPoint" />
          </mxGeometry>
        </mxCell>
        <mxCell id="ib_VcqRpzg_vTdFNA_JS-99" value="" style="endArrow=none;html=1;rounded=0;entryX=0;entryY=0.5;entryDx=0;entryDy=0;" edge="1" parent="1" target="ib_VcqRpzg_vTdFNA_JS-96">
          <mxGeometry width="50" height="50" relative="1" as="geometry">
            <mxPoint x="-200" y="410" as="sourcePoint" />
            <mxPoint x="-160" y="408.5" as="targetPoint" />
          </mxGeometry>
        </mxCell>
        <mxCell id="ib_VcqRpzg_vTdFNA_JS-100" value="" style="ellipse;whiteSpace=wrap;html=1;aspect=fixed;fillColor=#000000;" vertex="1" parent="1">
          <mxGeometry x="-225" y="325" width="10" height="10" as="geometry" />
        </mxCell>
        <mxCell id="ib_VcqRpzg_vTdFNA_JS-101" value="" style="ellipse;whiteSpace=wrap;html=1;aspect=fixed;fillColor=#000000;" vertex="1" parent="1">
          <mxGeometry x="-146" y="243" width="10" height="10" as="geometry" />
        </mxCell>
        <mxCell id="ib_VcqRpzg_vTdFNA_JS-102" value="" style="endArrow=none;html=1;rounded=0;entryX=0.5;entryY=1;entryDx=0;entryDy=0;exitX=0.5;exitY=0;exitDx=0;exitDy=0;" edge="1" parent="1" target="ib_VcqRpzg_vTdFNA_JS-100">
          <mxGeometry width="50" height="50" relative="1" as="geometry">
            <mxPoint x="-220" y="389" as="sourcePoint" />
            <mxPoint x="-301" y="470" as="targetPoint" />
          </mxGeometry>
        </mxCell>
        <mxCell id="ib_VcqRpzg_vTdFNA_JS-103" value="" style="endArrow=none;html=1;rounded=0;entryX=0.5;entryY=1;entryDx=0;entryDy=0;exitX=0.5;exitY=0;exitDx=0;exitDy=0;" edge="1" parent="1" source="ib_VcqRpzg_vTdFNA_JS-96">
          <mxGeometry width="50" height="50" relative="1" as="geometry">
            <mxPoint x="-141.42999999999984" y="307" as="sourcePoint" />
            <mxPoint x="-141.42999999999984" y="253" as="targetPoint" />
          </mxGeometry>
        </mxCell>
        <mxCell id="ib_VcqRpzg_vTdFNA_JS-104" value="&lt;font style=&quot;font-size: 14px;&quot;&gt;$$\texttt{H}$$&lt;/font&gt;" style="whiteSpace=wrap;html=1;aspect=fixed;fillColor=#dae8fc;gradientColor=#7ea6e0;strokeColor=#6c8ebf;" vertex="1" parent="1">
          <mxGeometry x="-71" y="310" width="40" height="40" as="geometry" />
        </mxCell>
        <mxCell id="ib_VcqRpzg_vTdFNA_JS-105" value="&lt;font style=&quot;font-size: 14px;&quot;&gt;$$\texttt{S}^\dagger$$&lt;/font&gt;" style="whiteSpace=wrap;html=1;aspect=fixed;fillColor=#FF99FF;gradientColor=#B266FF;" vertex="1" parent="1">
          <mxGeometry x="9" y="309" width="40" height="40" as="geometry" />
        </mxCell>
        <mxCell id="ib_VcqRpzg_vTdFNA_JS-106" value="" style="endArrow=none;html=1;rounded=0;" edge="1" parent="1" source="ib_VcqRpzg_vTdFNA_JS-104" target="ib_VcqRpzg_vTdFNA_JS-105">
          <mxGeometry width="50" height="50" relative="1" as="geometry">
            <mxPoint x="-71" y="405" as="sourcePoint" />
            <mxPoint x="-21" y="355" as="targetPoint" />
          </mxGeometry>
        </mxCell>
        <mxCell id="ib_VcqRpzg_vTdFNA_JS-107" value="" style="ellipse;whiteSpace=wrap;html=1;aspect=fixed;fillColor=#000000;" vertex="1" parent="1">
          <mxGeometry x="24" y="243" width="10" height="10" as="geometry" />
        </mxCell>
        <mxCell id="ib_VcqRpzg_vTdFNA_JS-108" value="" style="endArrow=none;html=1;rounded=0;entryX=0.5;entryY=1;entryDx=0;entryDy=0;exitX=0.5;exitY=0;exitDx=0;exitDy=0;" edge="1" parent="1" source="ib_VcqRpzg_vTdFNA_JS-105" target="ib_VcqRpzg_vTdFNA_JS-107">
          <mxGeometry width="50" height="50" relative="1" as="geometry">
            <mxPoint x="-102" y="440" as="sourcePoint" />
            <mxPoint x="-52" y="390" as="targetPoint" />
          </mxGeometry>
        </mxCell>
        <mxCell id="ib_VcqRpzg_vTdFNA_JS-109" value="&lt;font style=&quot;font-size: 14px;&quot;&gt;$$\texttt{H}$$&lt;/font&gt;" style="whiteSpace=wrap;html=1;aspect=fixed;fillColor=#dae8fc;gradientColor=#7ea6e0;strokeColor=#6c8ebf;" vertex="1" parent="1">
          <mxGeometry x="119" y="230" width="40" height="40" as="geometry" />
        </mxCell>
        <mxCell id="ib_VcqRpzg_vTdFNA_JS-110" value="" style="shape=image;verticalLabelPosition=bottom;labelBackgroundColor=default;verticalAlign=top;aspect=fixed;imageAspect=0;image=data:image/png,iVBORw0KGgoAAAANSUhEUgAABAAAAAFxCAQAAABHUhLLAAAABGdBTUEAALGPC/xhBQAAACBjSFJNAAB6JgAAgIQAAPoAAACA6AAAdTAAAOpgAAA6mAAAF3CculE8AAAAAmJLR0QA/4ePzL8AAAAHdElNRQfoBwoQMCATULpwAAAXI0lEQVR42u3debSddXkv8G84GQkkZCBhCBIDOAC5AUVmClgMS9eiMghqL3LvFU21VILUotZlRateqldbSluKQ1lijTYgCAEBQ6BIVFByKWVYagUCyBiSHEJmknP6BznJyZ7O3slOzt7v/nzOgmT/9rCyn/c9+/d93mknAAAAAAAAAAAAAAAAAAAAAAAAAAAAAAAAAAAAAAAAAAAAAAAAAAAAAAAAAAAAAAAAAAAAAAAAAAAAAAAAAAAAAAAAAAAAAAB0iiFKQMsYmiOzIqsVgoLaNbvl/mxQCAQA6D/535yZ1kcKrye35nQhAAEA+vwqRygCHeLeHKMIDL5dlIAWcKzpnw5ydN6qCAgAkCT/UwnoKOcqAQIAJMlwJaCjjFACBABIkv9SAjrKb5UAAQCSpFsJ6CivKAECAAAwCIYqAS3o/sxUBApkQQ5XBAQAGNiGLFcECrVGQ8uxCwAABAAAQAAAAAQAAEAAAAAEAABAAAAABAAAQAAAAAQAAEAAAAAEAABAAAAABAAAQAAAAAQAAEAAAAAEAAAQAAAAAQAAEAAAAAEAABAAAAABAAAQAAAAAQAAEAAAAAEAABAAAAABAAAQAACS5MC8L6OUAeo3VAmANndM5md0kuTpzMhyBQFbAIDi2ysLN03/yX5ZrCAgAACd4J6tPsfGZLaSgAAAFN3bc2DJyAcUBQQAoNhGZK4igAAAdJovZ0LZ2DeVBQQAoMiOyEVlY+tzlcKAAAAU18hcU+ET7GqFAQEAKLIv580VRi9TGBAAgOI6oeLpfotcBwAEAKC4xua7FT+97P8HAQAosCuyf4XRV3O90oAAABTVWVUu9nNzlioOCABAMU2puqH/e4oDAgBQ1M+saypc/CdJVuTHygMCAFBMn8vJVe65LmuUBwQAoIhOyGeq3net8oAAABTRhMxJV5X7VuYuBQIBACieIfl2plS995asUyIQAIDi+XTeXePeGxUIBACgeE7M52vc+2puVSIQAICimZw5GVrj/jvTrUggAADF0pV/zT41H2EHAAgAQOF8KafUvL838xQJBACgWM7MJQM84v78XplAAACKZEauyZABHvMjZQIBACiS8bk+owd8lCMAQAAACqQrczJtwEc9k0eUCgQAoDi+llPreNR8hQIBACiO8zO7rsctUCoQAICi+IP8U12P6xUAQAAAiuKN+VGG1/XIR/KccoEAABTB+MzLuDofe4dygQAAFMHwXJ+D6n60HQAgAAAFMCTfyol1P3pDfqpkIAAA7e8r+UADj743K5QMBACg3X0kn2jo8XYAgAAAtL3T8g8NPsMhgCAAAG3u+Pxbuhp6xrr8StlAAADa2YzMy6iy0Q01n7Mo6xQOBACgfR2Q27JH2ejyDK35rPsUDrbdUCUABtm+mZ+9ykaXpXeA5wkAYAsA0LYm5Cd5fdnomszNhAGeea/igQAAtKcxuTUHl41uzP/KmSVjpdsDXsyTygcCANCOds+teVvZaG8+kgMyqWS09Et/fqF8sD0cAwAMll1zU46tMP7JfD+Pl4WC0k8rRwCALQBAGxqVeTmpwviX89V8rKz/v61sxBEAIAAAbWd4rsvbK4z/cz6T0fl4Wf9/Z8lITxYpIggAQLt1/zflXRXGf5ALkgr9/w1lZwQ86muAQAAA2svo3JxTK4zflPPSU7H//0JmlIz9Uhlh+zgIENjZ0/+8nFxh/Pa8N69W6f8fzGElYw8pJAgAQPsYm1tzTIXx+Tk9a5Mq/f/E7F0y+rBSwvaxCwDYecbnjorT/x15d9YmVfv/GWXPeEQxQQAA2sNeuTNHVBhfmDOyJqna/6csACwvuywQIAAALen1uadCJ5/cnXdm5aa/V+7/k0P1/yAAAO3okCzMgRXGb+s3/Vfr/5M3lYw7AgAEAKANHJW7s0+F8Vs2b/yv1f8nb7QFAAQAoN2cljsrfrXvdTlj06F/tfv/yRkvAIAAALSXj+SG7FphfE7en1f73a7e/7+p7LkCAAgAQAsbkktzZboq3HNlPpAN/W5X7//LdwC8lBeVFraXCwEBO8rwfDvnVrznb/KpkpHq/b8jAEAAANrI2Fxf8fv+evPxXF4yNjoXV+3/k2kl9z2quCAAAK3pgNyUgyuMb8ys/EvZ6IXZs2r/Xx4AHlNeEACAVnRSrqt43P+qvC83l43W2v+fJK8vufdxBYbt5yBAoNk+lNsrTv9LM7PC9D9Q/z8puwsAIAAAra0rl+WbGV7hnsdyTH5eYXyg/n9a2TOeUGbYfnYBAM0zPt/PzIr33JfTsqTiPeX9//X9+v/yHQBLs0KhwRYAoHUclvurTP835OQq03+l/v+vt7q9n/4fBACgdb0/Pyvr1l/z93lPvyv+N9b/J1NK7n9KqUEAAFrD0FyWORUv+Ls+H8zs9FR53sD9f3kAeEa5oTm/tgDbZ5/MyYkV71mSM7OwxjMH7v+TfQUAEACA1nNyvpe9K97zcP6o5h77evp/AQB2ELsAgG3XlS/kjirT/405boAD9urp/7syWQAAKKpZ6d3q5xdK0hYm5faSJdf305PLBmwvRufFsmfNKHvUXmWv/cY2rNQvS97D+VYeBp9dAMC2eWeuLuvOX9Odc3PLgM+vp/9P2XcEJs8rPTSDXQBA40bmstxcZfr/TY6tY/qvb/9/ykLCepcBAlsAgMFxaOZkepX75ub8rKzjNerr/8u3ACxJrwUAtgAAO9uQzMp9Vab/dbko761r+q+3/y/fArDEIgBbAICdP/1/Kx+sct/jOSeL6nydevt/AQBsAQBawNlVp/+bckTd03/9/X8yUQAAAQAYbP+74ui6fDynZ3ndr1J//5/sUXJ7qYUAzWEXAFC/iRXGfp0/zgMNvEYj/X8yruR2dyHqeHBOsTLRkA1Zll9nvQAADI5f5W0lI9/NR7OqoddopP9PxpbcfrkQdbw4F1uZaNiS/EW+07yXswsAqN/fb/W1vt15f85rcPpvrP8vSgAYZtWhCfbM1TlHAAAGw2/y3ryw6e+3ZHp+0PArNNb/FyUATLbq0BRD8sXmvZhdAEAj5uWAHJOpeaDuY/63p/8vSgAYbcWhSQ7K+CwTAIDBsCp3bPNzG+3/d8muJSPteSHgHqsNTVuX1jbrpewCAHZeH9xo/z8qQ8riRzvqtvBpkgVZLQAA7abR/j8ZVTaypi3f+UsWPk2xLLOb92J2AQCt2v8XJwCUfoHR6qyzQtCglbkrl+YJAQAofv9fnABQXotvWyEYbHYBAK3a/6fsEMA07wAoEAAAWrP/r7QFQAAAAQAoeP+fDC+5vd4JdSAAAEXv/8uPUtqolCAAAEXv/8s/oQQAEACAwvf/SZcAAAIA0Gn9vwAAAgDQgf1/eQBwCCAIAEDh+3/HAIAAAHRg/1++BaBXQUEAAIre/yfDSm4PUVJoluZ+F8DuuSAnZaKy0iDrjP5fAIA2DgB75e68QUmBJvX/AgDsQM3cBfB3pn+aZLwS6P+TlB8DIABACwaAETlDOWkSuwT0/33P2NpwZYXWCwBj/GrSNEOVQP+fJNlQcnuUskLrBYCleV45aZLVSqD/T5J0l9weJhxC6wWAnnxVOWmSF5RA/58kea5sZKTSQqsFgORv8zeu00VTrFEC/X+S5NGynQACADRJMzen9eZT+aeckNHKSoNOyLmKoP+v4JUsylH9br+UpYoLUByz0rvVzy+UpM37/xdLlmhPZmzja52z1etc3aYV+WVJPc63kjD4XAoYaNX+P0muzQ2b//5kLlFcaBZH1ALN7v+bs/+/77lnZ1bOS7IgX8kK5QUBACh+/58kG3NlrlRWaDa7AIDW7f8BAQDoyP4fEAAA/T8gAAD6f0AAAAbdbvp/EAAA/b/+HwQAoAP6/4v0/9A+XAcA0P/vbAfnFEWgQevyQFYKAID+v51dnIsVgYatyGfyD817ObsAgB3T//9Q/7/ZcCWgCcbkipwnAACt3v9/UVk2m6wENMnnM0QAAPT/7WK0EtAkUzNeAAD0/+1ioxLQJBuyWgAA9P/tYrkS0CS3Z40AAOj/28VSJaApXsjs5r2Y0wAB/f+O1ltye0leURQatCb/ni/lOQEAqPV7PSETMjETsmcmZmImZGJGZI8kY9KVURmZYdlt86O7N01P3elNT7qzPN1Zvun/3VmepXkmz+v/m+rT+bYiMPgfFEC7G5WpmZqp2X/Tn42ddLbHpj/H1XjMujyTZ/Lkpv//Pk9s3qut/wcBANiJ9smhmZ5D8+aGJ/xtMSLTMi0n9Bt5IY/m1/ldLtH/gwAA7FhjMn3TtD+9eecCb6PJmZyTK4zr/0EAAJpkWo7PW3NcDm+D83bekmuyKAvzH859BwEA2BZjc0yOztE5OmPbKqxMyweSrMyi3Jd/z0+zyqIEAQAY2Mgcn5mZmeltfZ2O3XJiTswleTX3ZUHuzL1Zb9GCAABUckhmZmb+ILsW6D0Ny/E5Pp/LqizMnVmQB9JjQYMAACTJmLwzp2Zm9m3qq67O0ryUJXkpS7M0y7Iu67MqPXk5ycvpyaoM2/Q1tbtmxOY/x2Vc9uj337hMbMq/ZnROzalJXsxNuTF3ZK3FDgIAdK5xeXfOyjs2TcDbN90vzhN5MouzOIvzfJY27StDRmRKpuR1mZIp2S/7Zcp2RYJJ+VA+lJW5LTfmFtfIBwEAOs3EnJGz8vYM2+ZX2JjH81AeziNZnMV5cYf9S9flsTy21cjYHJ6bsvt2vOZueU/ek1fz0/woN+ZpqwMIAFB8k3JW3pMT07VNz342D+ehPJyH8mjzvhWsQS/n2LLp/4UMa/jaBMPyh/nDXJ57ck2uywqrBkCnmZXerX5+UdD32ZVTMjfrS95tPT/rc38uz3mZ2hLvY7e8WPLv68mMJPvktFya+Vm1De9wTebl7O3YHtLaflnybs/3Sw/QKQHgzflKnmt4WnwyP8jsHNViE+Nflv07r93q/qE5LH+SOdvwfp/L13OYAAAgABTBmHw4P29wIlyWa/Ph7N+S76da/1/JIbkwP8ryBt/9f+ZjGSMAAAgA7estubqhDeKv5p58Nkdt4/EBrdH/l+vKkflUfpK1DVRiRf4xBwsAAAJAu+nKmbm7gQnvhVyV09ug722k/y+1e87J9xrYHtCTBTmjpcOQAAAgAPQzJrPzRN3T3JJck9Pa5oycxvv/8mh0fC7P03XX59lcmj0FAAABoLUdlCuyou5D/L6e49rqiv/b0/9vbUjeli/lv+qs1Np8KwcJAAACQGs6KjdlY51Hu381R2ZI273D7e//S2PAsbkyy+qq2YbMyXQBAEAAaC1HZ1566prG5rft+e7N6/+3NiKnZW7W1XVUwLwcLQAACACt4ZjcVlcP+3AuzqQ2Xk7N7v+3NjEfK5soK//8JCcKAAACwOA6LrfXMWV158oc2eZLaUf1/1s7LN+s68TJhTlFAAAQAAZr8p9fx1T1m1yQ3QqwlHZs/9/fuPx5flfXloDDBQAAAWDnOihz6+pTzy7Eeew7q//fYpeckrnZMOAxAXNzgAAAIADsHOPzdwN+pc/qfCOHFGgZ7bz+v78D87UBT6pcm69nggAAIADsWMNz8YCnrT2bv8zEQi2hnd3/9zcun8vSASq+PJ/KKAEAQADYUc4acN/073NhRhZuCQ1O/7/F7vmLAb9b8Omc27JXVhAAANo4AByRewacgv6sgJP/4Pb/W4zKBXlygCVwV4t+gZAAANCmAWBMrhjgGn9P5YKMKOjyGez+f4th+T/5bc3lsD6XZbQAACAANMNpeWqAyX92ITv/Vur/t9gl5+XZAXbDnCcAAAgA22e/3FhzslmWizO80Eundfr/LUbnswOcHXBzpgkAAALAtunK7JrTzPpc3vInoBWt/99iUq6oeTLm6ny2Zb5zQQAAaKMAMCP31ewx5xfqPP926v+32D/X1PwKpoda5FqBAgBAmwSA4flyXq0xsSzKSR2xZFq3/9/iyPy8xpJal09nqAAAIADU4+AsGuAQs106ZMm0dv/fZ0jOz5IaS+zevFEAABAABppMZmVl1alkY67KmI5ZLu3Q//cZl8trnKi5Jp8c1O9kEAAAWjwATM7NNTrJB3NURy2X9uj/t3hrzaM2fpaDBAAAAaCSc2pcc35lPtEC+5L1/7V15cJ0V12Gr+SDAgCAALC1sfluje7xx5nacUul3fr/Pnvn32osyWsG5TqBAgBAiwaAt+TxqlPGc3lvBy6Tduz/tzinxkGBjwzC6ZsCAEBLBoDzsqrqdHFt4S/1U6z+v8+kXF/jEkEfFgAAOj0AjMw3qk4UL2dWhy6R9u7/+5xd45iOnbsrQAAAaLEA8Loax43/rKWuJq//3xZ7ZV7V5ftoDhUAADozALyraoe4Nn/eMRf7KWr//5oh+UheqXpWwPsFAIBOCwC75AtVLxzzYKZ39PIoSv/f58D8/ypLuidfyhABAKBzAsDY3FZ1Svh/GdHRS6NI/X+fkbmy6q6AH+6EowEEAICWCAD75oGqh/2d1fFL4zMF6//7nFn1EkEP5nUCAEDxA8CRea7qYWFv7vhlUcT+v88b8h9VlvyzOVIAACh2ADij6jn//zoo14jT/+9MI3N51cM+zxUAAIobAGZXOfBvbWZbDAXv//ucW+WsgJ5ctsPO/BAAAAYxAAyteiDYUx32LX+N9P9zC/guD80TVdaEORkuAAAUKwCMya1VPvTvyJ4WQdX+/38U8p3umYVV1obbdsiOIAEAYJACwKSqx/1f1WFf8qv/f82IfKfKGvHzjBMAAIoRAPbOw1X2+l6q+B3Y//epdkTII9lXAABo/wAwNb+rcuDf+5S+Q/v/Pu/MyxXXjSdykAAA0N4B4E15uuJH/Es5XuE7uv9/zfQsrrh+PJ/DBACKbRcloNAOy92ZUmH80bwtC5Wnn9llh0Jel//sgPf9UI7O/RXGJ+euHGe1AGjPLQBHZVmV4/73UHT9/2a7586K68mqnGQLAED7BYCTsqLix/r3MkzJS3Ti/v/+RuaGKjsCdhcAANorAJyc1RU/0r9hx5f+v4Kh+ZeK68vZAgBF5aOQYhqd72dUhfG/zZ+kR3lKdOr+//425Px8rcL4vlYPgHbaAnBmxW7uC0qt/6/p0+kpqcW7bAHAFgBoJ3uVjfTmk/krhdH/1/R/89Fs7Hf715lvBQFopy0Ap5S84sb8qTLr/+ty5uaLA/0mb2jSa9oCQAtyFXSK6a482O9rbDfm/HxHUfT/dbk+d+fd2TO/zS1ZbwUBaK8tAMnUPLTp1bpzuhLr/weVLQDYAgA7zeIcnpk5JC9kXpYrh/4fEADoFBvy4/xYGWr2/7NLRnrzRWWBzuAsAND/6/9BAAD0/4AAAOj/AQEA0P8DAgCg/wcEAED/DwgAQOu6sKz//6H+HwQAoNiG5KMlIz2+KREEAKDoxmVKycj1eUhZQAAAim1l1un/QQAAOs363LjV7bn6fxAAgE5wUR7b/Pff5iIFgc7jy4CgEz2XIzI7b09vFuTyrFAQEACAztCdz+fzygCdyy4AABAAAAABAAAQAAAAAQAAEAAAAAEAABAAAAABAAAQAAAAAQAAEAAAAAEAABAAAAABAAAQAAAAAQAAEAAAQAAAAAQAAEAAAAAEAABAAAAABAAAQAAAAAQAAEAAAAAEAABAAAAABAAAQAAAALbBUCWgBU3KLEWgQPZUAgQAqMe0XKUIADuSXQAAIADAoNhfCbDGgwBA59lLCegoeysBAgAkyVNKQEd5UgkYfEOUgBYwPkuEUTpGTyZmuTIw2LqUgBawJmvzDmWgQ1ySOxUBWwCgzzvy1eyf3ixLt2JQQOMyLr15Kp/IAsUAAAAAAAAAAAAAAAAAAAAAAAAAAAAAAAAAAAAAAAAAAAAAAAAAAAAAAAAAAAAAAAAAAAAAAAAAAAAAAAAAAAAAAAAAAAAAAAAAAHao/wbjRMtsqcvGKQAAACV0RVh0ZGF0ZTpjcmVhdGUAMjAyNC0wNy0xMFQxNjo0ODozMiswMDowMBpRru0AAAAldEVYdGRhdGU6bW9kaWZ5ADIwMjQtMDctMTBUMTY6NDg6MzIrMDA6MDBrDBZRAAAAAElFTkSuQmCC;clipPath=inset(3.7% 4% 3.7% 4%);" vertex="1" parent="1">
          <mxGeometry x="209" y="230" width="111" height="40.21739130434783" as="geometry" />
        </mxCell>
        <mxCell id="ib_VcqRpzg_vTdFNA_JS-111" value="" style="shape=image;verticalLabelPosition=bottom;labelBackgroundColor=default;verticalAlign=top;aspect=fixed;imageAspect=0;image=data:image/png,iVBORw0KGgoAAAANSUhEUgAABAAAAAFxCAQAAABHUhLLAAAABGdBTUEAALGPC/xhBQAAACBjSFJNAAB6JgAAgIQAAPoAAACA6AAAdTAAAOpgAAA6mAAAF3CculE8AAAAAmJLR0QA/4ePzL8AAAAHdElNRQfoBwoQMCATULpwAAAXI0lEQVR42u3debSddXkv8G84GQkkZCBhCBIDOAC5AUVmClgMS9eiMghqL3LvFU21VILUotZlRateqldbSluKQ1lijTYgCAEBQ6BIVFByKWVYagUCyBiSHEJmknP6BznJyZ7O3slOzt7v/nzOgmT/9rCyn/c9+/d93mknAAAAAAAAAAAAAAAAAAAAAAAAAAAAAAAAAAAAAAAAAAAAAAAAAAAAAAAAAAAAAAAAAAAAAAAAAAAAAAAAAAAAAAAAAAAAAAB0iiFKQMsYmiOzIqsVgoLaNbvl/mxQCAQA6D/535yZ1kcKrye35nQhAAEA+vwqRygCHeLeHKMIDL5dlIAWcKzpnw5ydN6qCAgAkCT/UwnoKOcqAQIAJMlwJaCjjFACBABIkv9SAjrKb5UAAQCSpFsJ6CivKAECAAAwCIYqAS3o/sxUBApkQQ5XBAQAGNiGLFcECrVGQ8uxCwAABAAAQAAAAAQAAEAAAAAEAABAAAAABAAAQAAAAAQAAEAAAAAEAABAAAAABAAAQAAAAAQAAEAAAAAEAAAQAAAAAQAAEAAAAAEAABAAAAABAAAQAAAAAQAAEAAAAAEAABAAAAABAAAQAACS5MC8L6OUAeo3VAmANndM5md0kuTpzMhyBQFbAIDi2ysLN03/yX5ZrCAgAACd4J6tPsfGZLaSgAAAFN3bc2DJyAcUBQQAoNhGZK4igAAAdJovZ0LZ2DeVBQQAoMiOyEVlY+tzlcKAAAAU18hcU+ET7GqFAQEAKLIv580VRi9TGBAAgOI6oeLpfotcBwAEAKC4xua7FT+97P8HAQAosCuyf4XRV3O90oAAABTVWVUu9nNzlioOCABAMU2puqH/e4oDAgBQ1M+saypc/CdJVuTHygMCAFBMn8vJVe65LmuUBwQAoIhOyGeq3net8oAAABTRhMxJV5X7VuYuBQIBACieIfl2plS995asUyIQAIDi+XTeXePeGxUIBACgeE7M52vc+2puVSIQAICimZw5GVrj/jvTrUggAADF0pV/zT41H2EHAAgAQOF8KafUvL838xQJBACgWM7MJQM84v78XplAAACKZEauyZABHvMjZQIBACiS8bk+owd8lCMAQAAACqQrczJtwEc9k0eUCgQAoDi+llPreNR8hQIBACiO8zO7rsctUCoQAICi+IP8U12P6xUAQAAAiuKN+VGG1/XIR/KccoEAABTB+MzLuDofe4dygQAAFMHwXJ+D6n60HQAgAAAFMCTfyol1P3pDfqpkIAAA7e8r+UADj743K5QMBACg3X0kn2jo8XYAgAAAtL3T8g8NPsMhgCAAAG3u+Pxbuhp6xrr8StlAAADa2YzMy6iy0Q01n7Mo6xQOBACgfR2Q27JH2ejyDK35rPsUDrbdUCUABtm+mZ+9ykaXpXeA5wkAYAsA0LYm5Cd5fdnomszNhAGeea/igQAAtKcxuTUHl41uzP/KmSVjpdsDXsyTygcCANCOds+teVvZaG8+kgMyqWS09Et/fqF8sD0cAwAMll1zU46tMP7JfD+Pl4WC0k8rRwCALQBAGxqVeTmpwviX89V8rKz/v61sxBEAIAAAbWd4rsvbK4z/cz6T0fl4Wf9/Z8lITxYpIggAQLt1/zflXRXGf5ALkgr9/w1lZwQ86muAQAAA2svo3JxTK4zflPPSU7H//0JmlIz9Uhlh+zgIENjZ0/+8nFxh/Pa8N69W6f8fzGElYw8pJAgAQPsYm1tzTIXx+Tk9a5Mq/f/E7F0y+rBSwvaxCwDYecbnjorT/x15d9YmVfv/GWXPeEQxQQAA2sNeuTNHVBhfmDOyJqna/6csACwvuywQIAAALen1uadCJ5/cnXdm5aa/V+7/k0P1/yAAAO3okCzMgRXGb+s3/Vfr/5M3lYw7AgAEAKANHJW7s0+F8Vs2b/yv1f8nb7QFAAQAoN2cljsrfrXvdTlj06F/tfv/yRkvAIAAALSXj+SG7FphfE7en1f73a7e/7+p7LkCAAgAQAsbkktzZboq3HNlPpAN/W5X7//LdwC8lBeVFraXCwEBO8rwfDvnVrznb/KpkpHq/b8jAEAAANrI2Fxf8fv+evPxXF4yNjoXV+3/k2kl9z2quCAAAK3pgNyUgyuMb8ys/EvZ6IXZs2r/Xx4AHlNeEACAVnRSrqt43P+qvC83l43W2v+fJK8vufdxBYbt5yBAoNk+lNsrTv9LM7PC9D9Q/z8puwsAIAAAra0rl+WbGV7hnsdyTH5eYXyg/n9a2TOeUGbYfnYBAM0zPt/PzIr33JfTsqTiPeX9//X9+v/yHQBLs0KhwRYAoHUclvurTP835OQq03+l/v+vt7q9n/4fBACgdb0/Pyvr1l/z93lPvyv+N9b/J1NK7n9KqUEAAFrD0FyWORUv+Ls+H8zs9FR53sD9f3kAeEa5oTm/tgDbZ5/MyYkV71mSM7OwxjMH7v+TfQUAEACA1nNyvpe9K97zcP6o5h77evp/AQB2ELsAgG3XlS/kjirT/405boAD9urp/7syWQAAKKpZ6d3q5xdK0hYm5faSJdf305PLBmwvRufFsmfNKHvUXmWv/cY2rNQvS97D+VYeBp9dAMC2eWeuLuvOX9Odc3PLgM+vp/9P2XcEJs8rPTSDXQBA40bmstxcZfr/TY6tY/qvb/9/ykLCepcBAlsAgMFxaOZkepX75ub8rKzjNerr/8u3ACxJrwUAtgAAO9uQzMp9Vab/dbko761r+q+3/y/fArDEIgBbAICdP/1/Kx+sct/jOSeL6nydevt/AQBsAQBawNlVp/+bckTd03/9/X8yUQAAAQAYbP+74ui6fDynZ3ndr1J//5/sUXJ7qYUAzWEXAFC/iRXGfp0/zgMNvEYj/X8yruR2dyHqeHBOsTLRkA1Zll9nvQAADI5f5W0lI9/NR7OqoddopP9PxpbcfrkQdbw4F1uZaNiS/EW+07yXswsAqN/fb/W1vt15f85rcPpvrP8vSgAYZtWhCfbM1TlHAAAGw2/y3ryw6e+3ZHp+0PArNNb/FyUATLbq0BRD8sXmvZhdAEAj5uWAHJOpeaDuY/63p/8vSgAYbcWhSQ7K+CwTAIDBsCp3bPNzG+3/d8muJSPteSHgHqsNTVuX1jbrpewCAHZeH9xo/z8qQ8riRzvqtvBpkgVZLQAA7abR/j8ZVTaypi3f+UsWPk2xLLOb92J2AQCt2v8XJwCUfoHR6qyzQtCglbkrl+YJAQAofv9fnABQXotvWyEYbHYBAK3a/6fsEMA07wAoEAAAWrP/r7QFQAAAAQAoeP+fDC+5vd4JdSAAAEXv/8uPUtqolCAAAEXv/8s/oQQAEACAwvf/SZcAAAIA0Gn9vwAAAgDQgf1/eQBwCCAIAEDh+3/HAIAAAHRg/1++BaBXQUEAAIre/yfDSm4PUVJoluZ+F8DuuSAnZaKy0iDrjP5fAIA2DgB75e68QUmBJvX/AgDsQM3cBfB3pn+aZLwS6P+TlB8DIABACwaAETlDOWkSuwT0/33P2NpwZYXWCwBj/GrSNEOVQP+fJNlQcnuUskLrBYCleV45aZLVSqD/T5J0l9weJhxC6wWAnnxVOWmSF5RA/58kea5sZKTSQqsFgORv8zeu00VTrFEC/X+S5NGynQACADRJMzen9eZT+aeckNHKSoNOyLmKoP+v4JUsylH9br+UpYoLUByz0rvVzy+UpM37/xdLlmhPZmzja52z1etc3aYV+WVJPc63kjD4XAoYaNX+P0muzQ2b//5kLlFcaBZH1ALN7v+bs/+/77lnZ1bOS7IgX8kK5QUBACh+/58kG3NlrlRWaDa7AIDW7f8BAQDoyP4fEAAA/T8gAAD6f0AAAAbdbvp/EAAA/b/+HwQAoAP6/4v0/9A+XAcA0P/vbAfnFEWgQevyQFYKAID+v51dnIsVgYatyGfyD817ObsAgB3T//9Q/7/ZcCWgCcbkipwnAACt3v9/UVk2m6wENMnnM0QAAPT/7WK0EtAkUzNeAAD0/+1ioxLQJBuyWgAA9P/tYrkS0CS3Z40AAOj/28VSJaApXsjs5r2Y0wAB/f+O1ltye0leURQatCb/ni/lOQEAqPV7PSETMjETsmcmZmImZGJGZI8kY9KVURmZYdlt86O7N01P3elNT7qzPN1Zvun/3VmepXkmz+v/m+rT+bYiMPgfFEC7G5WpmZqp2X/Tn42ddLbHpj/H1XjMujyTZ/Lkpv//Pk9s3qut/wcBANiJ9smhmZ5D8+aGJ/xtMSLTMi0n9Bt5IY/m1/ldLtH/gwAA7FhjMn3TtD+9eecCb6PJmZyTK4zr/0EAAJpkWo7PW3NcDm+D83bekmuyKAvzH859BwEA2BZjc0yOztE5OmPbKqxMyweSrMyi3Jd/z0+zyqIEAQAY2Mgcn5mZmeltfZ2O3XJiTswleTX3ZUHuzL1Zb9GCAABUckhmZmb+ILsW6D0Ny/E5Pp/LqizMnVmQB9JjQYMAACTJmLwzp2Zm9m3qq67O0ryUJXkpS7M0y7Iu67MqPXk5ycvpyaoM2/Q1tbtmxOY/x2Vc9uj337hMbMq/ZnROzalJXsxNuTF3ZK3FDgIAdK5xeXfOyjs2TcDbN90vzhN5MouzOIvzfJY27StDRmRKpuR1mZIp2S/7Zcp2RYJJ+VA+lJW5LTfmFtfIBwEAOs3EnJGz8vYM2+ZX2JjH81AeziNZnMV5cYf9S9flsTy21cjYHJ6bsvt2vOZueU/ek1fz0/woN+ZpqwMIAFB8k3JW3pMT07VNz342D+ehPJyH8mjzvhWsQS/n2LLp/4UMa/jaBMPyh/nDXJ57ck2uywqrBkCnmZXerX5+UdD32ZVTMjfrS95tPT/rc38uz3mZ2hLvY7e8WPLv68mMJPvktFya+Vm1De9wTebl7O3YHtLaflnybs/3Sw/QKQHgzflKnmt4WnwyP8jsHNViE+Nflv07r93q/qE5LH+SOdvwfp/L13OYAAAgABTBmHw4P29wIlyWa/Ph7N+S76da/1/JIbkwP8ryBt/9f+ZjGSMAAAgA7estubqhDeKv5p58Nkdt4/EBrdH/l+vKkflUfpK1DVRiRf4xBwsAAAJAu+nKmbm7gQnvhVyV09ug722k/y+1e87J9xrYHtCTBTmjpcOQAAAgAPQzJrPzRN3T3JJck9Pa5oycxvv/8mh0fC7P03XX59lcmj0FAAABoLUdlCuyou5D/L6e49rqiv/b0/9vbUjeli/lv+qs1Np8KwcJAAACQGs6KjdlY51Hu381R2ZI273D7e//S2PAsbkyy+qq2YbMyXQBAEAAaC1HZ1566prG5rft+e7N6/+3NiKnZW7W1XVUwLwcLQAACACt4ZjcVlcP+3AuzqQ2Xk7N7v+3NjEfK5soK//8JCcKAAACwOA6LrfXMWV158oc2eZLaUf1/1s7LN+s68TJhTlFAAAQAAZr8p9fx1T1m1yQ3QqwlHZs/9/fuPx5flfXloDDBQAAAWDnOihz6+pTzy7Eeew7q//fYpeckrnZMOAxAXNzgAAAIADsHOPzdwN+pc/qfCOHFGgZ7bz+v78D87UBT6pcm69nggAAIADsWMNz8YCnrT2bv8zEQi2hnd3/9zcun8vSASq+PJ/KKAEAQADYUc4acN/073NhRhZuCQ1O/7/F7vmLAb9b8Omc27JXVhAAANo4AByRewacgv6sgJP/4Pb/W4zKBXlygCVwV4t+gZAAANCmAWBMrhjgGn9P5YKMKOjyGez+f4th+T/5bc3lsD6XZbQAACAANMNpeWqAyX92ITv/Vur/t9gl5+XZAXbDnCcAAAgA22e/3FhzslmWizO80Eundfr/LUbnswOcHXBzpgkAAALAtunK7JrTzPpc3vInoBWt/99iUq6oeTLm6ny2Zb5zQQAAaKMAMCP31ewx5xfqPP926v+32D/X1PwKpoda5FqBAgBAmwSA4flyXq0xsSzKSR2xZFq3/9/iyPy8xpJal09nqAAAIADU4+AsGuAQs106ZMm0dv/fZ0jOz5IaS+zevFEAABAABppMZmVl1alkY67KmI5ZLu3Q//cZl8trnKi5Jp8c1O9kEAAAWjwATM7NNTrJB3NURy2X9uj/t3hrzaM2fpaDBAAAAaCSc2pcc35lPtEC+5L1/7V15cJ0V12Gr+SDAgCAALC1sfluje7xx5nacUul3fr/Pnvn32osyWsG5TqBAgBAiwaAt+TxqlPGc3lvBy6Tduz/tzinxkGBjwzC6ZsCAEBLBoDzsqrqdHFt4S/1U6z+v8+kXF/jEkEfFgAAOj0AjMw3qk4UL2dWhy6R9u7/+5xd45iOnbsrQAAAaLEA8Loax43/rKWuJq//3xZ7ZV7V5ftoDhUAADozALyraoe4Nn/eMRf7KWr//5oh+UheqXpWwPsFAIBOCwC75AtVLxzzYKZ39PIoSv/f58D8/ypLuidfyhABAKBzAsDY3FZ1Svh/GdHRS6NI/X+fkbmy6q6AH+6EowEEAICWCAD75oGqh/2d1fFL4zMF6//7nFn1EkEP5nUCAEDxA8CRea7qYWFv7vhlUcT+v88b8h9VlvyzOVIAACh2ADij6jn//zoo14jT/+9MI3N51cM+zxUAAIobAGZXOfBvbWZbDAXv//ucW+WsgJ5ctsPO/BAAAAYxAAyteiDYUx32LX+N9P9zC/guD80TVdaEORkuAAAUKwCMya1VPvTvyJ4WQdX+/38U8p3umYVV1obbdsiOIAEAYJACwKSqx/1f1WFf8qv/f82IfKfKGvHzjBMAAIoRAPbOw1X2+l6q+B3Y//epdkTII9lXAABo/wAwNb+rcuDf+5S+Q/v/Pu/MyxXXjSdykAAA0N4B4E15uuJH/Es5XuE7uv9/zfQsrrh+PJ/DBACKbRcloNAOy92ZUmH80bwtC5Wnn9llh0Jel//sgPf9UI7O/RXGJ+euHGe1AGjPLQBHZVmV4/73UHT9/2a7586K68mqnGQLAED7BYCTsqLix/r3MkzJS3Ti/v/+RuaGKjsCdhcAANorAJyc1RU/0r9hx5f+v4Kh+ZeK68vZAgBF5aOQYhqd72dUhfG/zZ+kR3lKdOr+//425Px8rcL4vlYPgHbaAnBmxW7uC0qt/6/p0+kpqcW7bAHAFgBoJ3uVjfTmk/krhdH/1/R/89Fs7Hf715lvBQFopy0Ap5S84sb8qTLr/+ty5uaLA/0mb2jSa9oCQAtyFXSK6a482O9rbDfm/HxHUfT/dbk+d+fd2TO/zS1ZbwUBaK8tAMnUPLTp1bpzuhLr/weVLQDYAgA7zeIcnpk5JC9kXpYrh/4fEADoFBvy4/xYGWr2/7NLRnrzRWWBzuAsAND/6/9BAAD0/4AAAOj/AQEA0P8DAgCg/wcEAED/DwgAQOu6sKz//6H+HwQAoNiG5KMlIz2+KREEAKDoxmVKycj1eUhZQAAAim1l1un/QQAAOs363LjV7bn6fxAAgE5wUR7b/Pff5iIFgc7jy4CgEz2XIzI7b09vFuTyrFAQEACAztCdz+fzygCdyy4AABAAAAABAAAQAAAAAQAAEAAAAAEAABAAAAABAAAQAAAAAQAAEAAAAAEAABAAAAABAAAQAAAAAQAAEAAAQAAAAAQAAEAAAAAEAABAAAAABAAAQAAAAAQAAEAAAAAEAABAAAAABAAAQAAAALbBUCWgBU3KLEWgQPZUAgQAqMe0XKUIADuSXQAAIADAoNhfCbDGgwBA59lLCegoeysBAgAkyVNKQEd5UgkYfEOUgBYwPkuEUTpGTyZmuTIw2LqUgBawJmvzDmWgQ1ySOxUBWwCgzzvy1eyf3ixLt2JQQOMyLr15Kp/IAsUAAAAAAAAAAAAAAAAAAAAAAAAAAAAAAAAAAAAAAAAAAAAAAAAAAAAAAAAAAAAAAAAAAAAAAAAAAAAAAAAAAAAAAAAAAAAAAAAAAHao/wbjRMtsqcvGKQAAACV0RVh0ZGF0ZTpjcmVhdGUAMjAyNC0wNy0xMFQxNjo0ODozMiswMDowMBpRru0AAAAldEVYdGRhdGU6bW9kaWZ5ADIwMjQtMDctMTBUMTY6NDg6MzIrMDA6MDBrDBZRAAAAAElFTkSuQmCC;clipPath=inset(3.7% 4% 3.7% 4%);" vertex="1" parent="1">
          <mxGeometry x="209" y="308.78" width="111" height="40.21739130434783" as="geometry" />
        </mxCell>
        <mxCell id="ib_VcqRpzg_vTdFNA_JS-112" value="" style="shape=image;verticalLabelPosition=bottom;labelBackgroundColor=default;verticalAlign=top;aspect=fixed;imageAspect=0;image=data:image/png,iVBORw0KGgoAAAANSUhEUgAABAAAAAFxCAQAAABHUhLLAAAABGdBTUEAALGPC/xhBQAAACBjSFJNAAB6JgAAgIQAAPoAAACA6AAAdTAAAOpgAAA6mAAAF3CculE8AAAAAmJLR0QA/4ePzL8AAAAHdElNRQfoBwoQMCATULpwAAAXI0lEQVR42u3debSddXkv8G84GQkkZCBhCBIDOAC5AUVmClgMS9eiMghqL3LvFU21VILUotZlRateqldbSluKQ1lijTYgCAEBQ6BIVFByKWVYagUCyBiSHEJmknP6BznJyZ7O3slOzt7v/nzOgmT/9rCyn/c9+/d93mknAAAAAAAAAAAAAAAAAAAAAAAAAAAAAAAAAAAAAAAAAAAAAAAAAAAAAAAAAAAAAAAAAAAAAAAAAAAAAAAAAAAAAAAAAAAAAAB0iiFKQMsYmiOzIqsVgoLaNbvl/mxQCAQA6D/535yZ1kcKrye35nQhAAEA+vwqRygCHeLeHKMIDL5dlIAWcKzpnw5ydN6qCAgAkCT/UwnoKOcqAQIAJMlwJaCjjFACBABIkv9SAjrKb5UAAQCSpFsJ6CivKAECAAAwCIYqAS3o/sxUBApkQQ5XBAQAGNiGLFcECrVGQ8uxCwAABAAAQAAAAAQAAEAAAAAEAABAAAAABAAAQAAAAAQAAEAAAAAEAABAAAAABAAAQAAAAAQAAEAAAAAEAAAQAAAAAQAAEAAAAAEAABAAAAABAAAQAAAAAQAAEAAAAAEAABAAAAABAAAQAACS5MC8L6OUAeo3VAmANndM5md0kuTpzMhyBQFbAIDi2ysLN03/yX5ZrCAgAACd4J6tPsfGZLaSgAAAFN3bc2DJyAcUBQQAoNhGZK4igAAAdJovZ0LZ2DeVBQQAoMiOyEVlY+tzlcKAAAAU18hcU+ET7GqFAQEAKLIv580VRi9TGBAAgOI6oeLpfotcBwAEAKC4xua7FT+97P8HAQAosCuyf4XRV3O90oAAABTVWVUu9nNzlioOCABAMU2puqH/e4oDAgBQ1M+saypc/CdJVuTHygMCAFBMn8vJVe65LmuUBwQAoIhOyGeq3net8oAAABTRhMxJV5X7VuYuBQIBACieIfl2plS995asUyIQAIDi+XTeXePeGxUIBACgeE7M52vc+2puVSIQAICimZw5GVrj/jvTrUggAADF0pV/zT41H2EHAAgAQOF8KafUvL838xQJBACgWM7MJQM84v78XplAAACKZEauyZABHvMjZQIBACiS8bk+owd8lCMAQAAACqQrczJtwEc9k0eUCgQAoDi+llPreNR8hQIBACiO8zO7rsctUCoQAICi+IP8U12P6xUAQAAAiuKN+VGG1/XIR/KccoEAABTB+MzLuDofe4dygQAAFMHwXJ+D6n60HQAgAAAFMCTfyol1P3pDfqpkIAAA7e8r+UADj743K5QMBACg3X0kn2jo8XYAgAAAtL3T8g8NPsMhgCAAAG3u+Pxbuhp6xrr8StlAAADa2YzMy6iy0Q01n7Mo6xQOBACgfR2Q27JH2ejyDK35rPsUDrbdUCUABtm+mZ+9ykaXpXeA5wkAYAsA0LYm5Cd5fdnomszNhAGeea/igQAAtKcxuTUHl41uzP/KmSVjpdsDXsyTygcCANCOds+teVvZaG8+kgMyqWS09Et/fqF8sD0cAwAMll1zU46tMP7JfD+Pl4WC0k8rRwCALQBAGxqVeTmpwviX89V8rKz/v61sxBEAIAAAbWd4rsvbK4z/cz6T0fl4Wf9/Z8lITxYpIggAQLt1/zflXRXGf5ALkgr9/w1lZwQ86muAQAAA2svo3JxTK4zflPPSU7H//0JmlIz9Uhlh+zgIENjZ0/+8nFxh/Pa8N69W6f8fzGElYw8pJAgAQPsYm1tzTIXx+Tk9a5Mq/f/E7F0y+rBSwvaxCwDYecbnjorT/x15d9YmVfv/GWXPeEQxQQAA2sNeuTNHVBhfmDOyJqna/6csACwvuywQIAAALen1uadCJ5/cnXdm5aa/V+7/k0P1/yAAAO3okCzMgRXGb+s3/Vfr/5M3lYw7AgAEAKANHJW7s0+F8Vs2b/yv1f8nb7QFAAQAoN2cljsrfrXvdTlj06F/tfv/yRkvAIAAALSXj+SG7FphfE7en1f73a7e/7+p7LkCAAgAQAsbkktzZboq3HNlPpAN/W5X7//LdwC8lBeVFraXCwEBO8rwfDvnVrznb/KpkpHq/b8jAEAAANrI2Fxf8fv+evPxXF4yNjoXV+3/k2kl9z2quCAAAK3pgNyUgyuMb8ys/EvZ6IXZs2r/Xx4AHlNeEACAVnRSrqt43P+qvC83l43W2v+fJK8vufdxBYbt5yBAoNk+lNsrTv9LM7PC9D9Q/z8puwsAIAAAra0rl+WbGV7hnsdyTH5eYXyg/n9a2TOeUGbYfnYBAM0zPt/PzIr33JfTsqTiPeX9//X9+v/yHQBLs0KhwRYAoHUclvurTP835OQq03+l/v+vt7q9n/4fBACgdb0/Pyvr1l/z93lPvyv+N9b/J1NK7n9KqUEAAFrD0FyWORUv+Ls+H8zs9FR53sD9f3kAeEa5oTm/tgDbZ5/MyYkV71mSM7OwxjMH7v+TfQUAEACA1nNyvpe9K97zcP6o5h77evp/AQB2ELsAgG3XlS/kjirT/405boAD9urp/7syWQAAKKpZ6d3q5xdK0hYm5faSJdf305PLBmwvRufFsmfNKHvUXmWv/cY2rNQvS97D+VYeBp9dAMC2eWeuLuvOX9Odc3PLgM+vp/9P2XcEJs8rPTSDXQBA40bmstxcZfr/TY6tY/qvb/9/ykLCepcBAlsAgMFxaOZkepX75ub8rKzjNerr/8u3ACxJrwUAtgAAO9uQzMp9Vab/dbko761r+q+3/y/fArDEIgBbAICdP/1/Kx+sct/jOSeL6nydevt/AQBsAQBawNlVp/+bckTd03/9/X8yUQAAAQAYbP+74ui6fDynZ3ndr1J//5/sUXJ7qYUAzWEXAFC/iRXGfp0/zgMNvEYj/X8yruR2dyHqeHBOsTLRkA1Zll9nvQAADI5f5W0lI9/NR7OqoddopP9PxpbcfrkQdbw4F1uZaNiS/EW+07yXswsAqN/fb/W1vt15f85rcPpvrP8vSgAYZtWhCfbM1TlHAAAGw2/y3ryw6e+3ZHp+0PArNNb/FyUATLbq0BRD8sXmvZhdAEAj5uWAHJOpeaDuY/63p/8vSgAYbcWhSQ7K+CwTAIDBsCp3bPNzG+3/d8muJSPteSHgHqsNTVuX1jbrpewCAHZeH9xo/z8qQ8riRzvqtvBpkgVZLQAA7abR/j8ZVTaypi3f+UsWPk2xLLOb92J2AQCt2v8XJwCUfoHR6qyzQtCglbkrl+YJAQAofv9fnABQXotvWyEYbHYBAK3a/6fsEMA07wAoEAAAWrP/r7QFQAAAAQAoeP+fDC+5vd4JdSAAAEXv/8uPUtqolCAAAEXv/8s/oQQAEACAwvf/SZcAAAIA0Gn9vwAAAgDQgf1/eQBwCCAIAEDh+3/HAIAAAHRg/1++BaBXQUEAAIre/yfDSm4PUVJoluZ+F8DuuSAnZaKy0iDrjP5fAIA2DgB75e68QUmBJvX/AgDsQM3cBfB3pn+aZLwS6P+TlB8DIABACwaAETlDOWkSuwT0/33P2NpwZYXWCwBj/GrSNEOVQP+fJNlQcnuUskLrBYCleV45aZLVSqD/T5J0l9weJhxC6wWAnnxVOWmSF5RA/58kea5sZKTSQqsFgORv8zeu00VTrFEC/X+S5NGynQACADRJMzen9eZT+aeckNHKSoNOyLmKoP+v4JUsylH9br+UpYoLUByz0rvVzy+UpM37/xdLlmhPZmzja52z1etc3aYV+WVJPc63kjD4XAoYaNX+P0muzQ2b//5kLlFcaBZH1ALN7v+bs/+/77lnZ1bOS7IgX8kK5QUBACh+/58kG3NlrlRWaDa7AIDW7f8BAQDoyP4fEAAA/T8gAAD6f0AAAAbdbvp/EAAA/b/+HwQAoAP6/4v0/9A+XAcA0P/vbAfnFEWgQevyQFYKAID+v51dnIsVgYatyGfyD817ObsAgB3T//9Q/7/ZcCWgCcbkipwnAACt3v9/UVk2m6wENMnnM0QAAPT/7WK0EtAkUzNeAAD0/+1ioxLQJBuyWgAA9P/tYrkS0CS3Z40AAOj/28VSJaApXsjs5r2Y0wAB/f+O1ltye0leURQatCb/ni/lOQEAqPV7PSETMjETsmcmZmImZGJGZI8kY9KVURmZYdlt86O7N01P3elNT7qzPN1Zvun/3VmepXkmz+v/m+rT+bYiMPgfFEC7G5WpmZqp2X/Tn42ddLbHpj/H1XjMujyTZ/Lkpv//Pk9s3qut/wcBANiJ9smhmZ5D8+aGJ/xtMSLTMi0n9Bt5IY/m1/ldLtH/gwAA7FhjMn3TtD+9eecCb6PJmZyTK4zr/0EAAJpkWo7PW3NcDm+D83bekmuyKAvzH859BwEA2BZjc0yOztE5OmPbKqxMyweSrMyi3Jd/z0+zyqIEAQAY2Mgcn5mZmeltfZ2O3XJiTswleTX3ZUHuzL1Zb9GCAABUckhmZmb+ILsW6D0Ny/E5Pp/LqizMnVmQB9JjQYMAACTJmLwzp2Zm9m3qq67O0ryUJXkpS7M0y7Iu67MqPXk5ycvpyaoM2/Q1tbtmxOY/x2Vc9uj337hMbMq/ZnROzalJXsxNuTF3ZK3FDgIAdK5xeXfOyjs2TcDbN90vzhN5MouzOIvzfJY27StDRmRKpuR1mZIp2S/7Zcp2RYJJ+VA+lJW5LTfmFtfIBwEAOs3EnJGz8vYM2+ZX2JjH81AeziNZnMV5cYf9S9flsTy21cjYHJ6bsvt2vOZueU/ek1fz0/woN+ZpqwMIAFB8k3JW3pMT07VNz342D+ehPJyH8mjzvhWsQS/n2LLp/4UMa/jaBMPyh/nDXJ57ck2uywqrBkCnmZXerX5+UdD32ZVTMjfrS95tPT/rc38uz3mZ2hLvY7e8WPLv68mMJPvktFya+Vm1De9wTebl7O3YHtLaflnybs/3Sw/QKQHgzflKnmt4WnwyP8jsHNViE+Nflv07r93q/qE5LH+SOdvwfp/L13OYAAAgABTBmHw4P29wIlyWa/Ph7N+S76da/1/JIbkwP8ryBt/9f+ZjGSMAAAgA7estubqhDeKv5p58Nkdt4/EBrdH/l+vKkflUfpK1DVRiRf4xBwsAAAJAu+nKmbm7gQnvhVyV09ug722k/y+1e87J9xrYHtCTBTmjpcOQAAAgAPQzJrPzRN3T3JJck9Pa5oycxvv/8mh0fC7P03XX59lcmj0FAAABoLUdlCuyou5D/L6e49rqiv/b0/9vbUjeli/lv+qs1Np8KwcJAAACQGs6KjdlY51Hu381R2ZI273D7e//S2PAsbkyy+qq2YbMyXQBAEAAaC1HZ1566prG5rft+e7N6/+3NiKnZW7W1XVUwLwcLQAACACt4ZjcVlcP+3AuzqQ2Xk7N7v+3NjEfK5soK//8JCcKAAACwOA6LrfXMWV158oc2eZLaUf1/1s7LN+s68TJhTlFAAAQAAZr8p9fx1T1m1yQ3QqwlHZs/9/fuPx5flfXloDDBQAAAWDnOihz6+pTzy7Eeew7q//fYpeckrnZMOAxAXNzgAAAIADsHOPzdwN+pc/qfCOHFGgZ7bz+v78D87UBT6pcm69nggAAIADsWMNz8YCnrT2bv8zEQi2hnd3/9zcun8vSASq+PJ/KKAEAQADYUc4acN/073NhRhZuCQ1O/7/F7vmLAb9b8Omc27JXVhAAANo4AByRewacgv6sgJP/4Pb/W4zKBXlygCVwV4t+gZAAANCmAWBMrhjgGn9P5YKMKOjyGez+f4th+T/5bc3lsD6XZbQAACAANMNpeWqAyX92ITv/Vur/t9gl5+XZAXbDnCcAAAgA22e/3FhzslmWizO80Eundfr/LUbnswOcHXBzpgkAAALAtunK7JrTzPpc3vInoBWt/99iUq6oeTLm6ny2Zb5zQQAAaKMAMCP31ewx5xfqPP926v+32D/X1PwKpoda5FqBAgBAmwSA4flyXq0xsSzKSR2xZFq3/9/iyPy8xpJal09nqAAAIADU4+AsGuAQs106ZMm0dv/fZ0jOz5IaS+zevFEAABAABppMZmVl1alkY67KmI5ZLu3Q//cZl8trnKi5Jp8c1O9kEAAAWjwATM7NNTrJB3NURy2X9uj/t3hrzaM2fpaDBAAAAaCSc2pcc35lPtEC+5L1/7V15cJ0V12Gr+SDAgCAALC1sfluje7xx5nacUul3fr/Pnvn32osyWsG5TqBAgBAiwaAt+TxqlPGc3lvBy6Tduz/tzinxkGBjwzC6ZsCAEBLBoDzsqrqdHFt4S/1U6z+v8+kXF/jEkEfFgAAOj0AjMw3qk4UL2dWhy6R9u7/+5xd45iOnbsrQAAAaLEA8Loax43/rKWuJq//3xZ7ZV7V5ftoDhUAADozALyraoe4Nn/eMRf7KWr//5oh+UheqXpWwPsFAIBOCwC75AtVLxzzYKZ39PIoSv/f58D8/ypLuidfyhABAKBzAsDY3FZ1Svh/GdHRS6NI/X+fkbmy6q6AH+6EowEEAICWCAD75oGqh/2d1fFL4zMF6//7nFn1EkEP5nUCAEDxA8CRea7qYWFv7vhlUcT+v88b8h9VlvyzOVIAACh2ADij6jn//zoo14jT/+9MI3N51cM+zxUAAIobAGZXOfBvbWZbDAXv//ucW+WsgJ5ctsPO/BAAAAYxAAyteiDYUx32LX+N9P9zC/guD80TVdaEORkuAAAUKwCMya1VPvTvyJ4WQdX+/38U8p3umYVV1obbdsiOIAEAYJACwKSqx/1f1WFf8qv/f82IfKfKGvHzjBMAAIoRAPbOw1X2+l6q+B3Y//epdkTII9lXAABo/wAwNb+rcuDf+5S+Q/v/Pu/MyxXXjSdykAAA0N4B4E15uuJH/Es5XuE7uv9/zfQsrrh+PJ/DBACKbRcloNAOy92ZUmH80bwtC5Wnn9llh0Jel//sgPf9UI7O/RXGJ+euHGe1AGjPLQBHZVmV4/73UHT9/2a7586K68mqnGQLAED7BYCTsqLix/r3MkzJS3Ti/v/+RuaGKjsCdhcAANorAJyc1RU/0r9hx5f+v4Kh+ZeK68vZAgBF5aOQYhqd72dUhfG/zZ+kR3lKdOr+//425Px8rcL4vlYPgHbaAnBmxW7uC0qt/6/p0+kpqcW7bAHAFgBoJ3uVjfTmk/krhdH/1/R/89Fs7Hf715lvBQFopy0Ap5S84sb8qTLr/+ty5uaLA/0mb2jSa9oCQAtyFXSK6a482O9rbDfm/HxHUfT/dbk+d+fd2TO/zS1ZbwUBaK8tAMnUPLTp1bpzuhLr/weVLQDYAgA7zeIcnpk5JC9kXpYrh/4fEADoFBvy4/xYGWr2/7NLRnrzRWWBzuAsAND/6/9BAAD0/4AAAOj/AQEA0P8DAgCg/wcEAED/DwgAQOu6sKz//6H+HwQAoNiG5KMlIz2+KREEAKDoxmVKycj1eUhZQAAAim1l1un/QQAAOs363LjV7bn6fxAAgE5wUR7b/Pff5iIFgc7jy4CgEz2XIzI7b09vFuTyrFAQEACAztCdz+fzygCdyy4AABAAAAABAAAQAAAAAQAAEAAAAAEAABAAAAABAAAQAAAAAQAAEAAAAAEAABAAAAABAAAQAAAAAQAAEAAAQAAAAAQAAEAAAAAEAABAAAAABAAAQAAAAAQAAEAAAAAEAABAAAAABAAAQAAAALbBUCWgBU3KLEWgQPZUAgQAqMe0XKUIADuSXQAAIADAoNhfCbDGgwBA59lLCegoeysBAgAkyVNKQEd5UgkYfEOUgBYwPkuEUTpGTyZmuTIw2LqUgBawJmvzDmWgQ1ySOxUBWwCgzzvy1eyf3ixLt2JQQOMyLr15Kp/IAsUAAAAAAAAAAAAAAAAAAAAAAAAAAAAAAAAAAAAAAAAAAAAAAAAAAAAAAAAAAAAAAAAAAAAAAAAAAAAAAAAAAAAAAAAAAAAAAAAAAHao/wbjRMtsqcvGKQAAACV0RVh0ZGF0ZTpjcmVhdGUAMjAyNC0wNy0xMFQxNjo0ODozMiswMDowMBpRru0AAAAldEVYdGRhdGU6bW9kaWZ5ADIwMjQtMDctMTBUMTY6NDg6MzIrMDA6MDBrDBZRAAAAAElFTkSuQmCC;clipPath=inset(3.7% 4% 3.7% 4%);" vertex="1" parent="1">
          <mxGeometry x="209" y="388.78" width="111" height="40.21739130434783" as="geometry" />
        </mxCell>
        <mxCell id="ib_VcqRpzg_vTdFNA_JS-114" value="$$\texttt{QFT}^\dagger$$" style="text;html=1;align=center;verticalAlign=middle;whiteSpace=wrap;rounded=0;" vertex="1" parent="1">
          <mxGeometry x="-345" y="200" width="40" height="30" as="geometry" />
        </mxCell>
        <mxCell id="ib_VcqRpzg_vTdFNA_JS-115" value="&lt;font style=&quot;font-size: 14px;&quot;&gt;$$\texttt{S}^\dagger$$&lt;/font&gt;" style="whiteSpace=wrap;html=1;aspect=fixed;fillColor=#FF99FF;gradientColor=#B266FF;" vertex="1" parent="1">
          <mxGeometry x="-240" y="388.78" width="40" height="40" as="geometry" />
        </mxCell>
      </root>
    </mxGraphModel>
  </diagram>
</mxfile>
